<?xml version="1.0" encoding="UTF-8"?>
<!DOCTYPE svg PUBLIC "-//W3C//DTD SVG 1.1//EN" "http://www.w3.org/Graphics/SVG/1.1/DTD/svg11.dtd">
<!-- Creator: CorelDRAW -->
<svg xmlns="http://www.w3.org/2000/svg" xml:space="preserve" width="180px" height="180px" version="1.1" style="shape-rendering:geometricPrecision; text-rendering:geometricPrecision; image-rendering:optimizeQuality; fill-rule:evenodd; clip-rule:evenodd"
viewBox="0 0 180 180"
 xmlns:xlink="http://www.w3.org/1999/xlink"
 xmlns:xodm="http://www.corel.com/coreldraw/odm/2003">
 <defs>
  <style type="text/css">
   <![CDATA[
    .fil1 {fill:#003399;fill-rule:nonzero}
    .fil0 {fill:#33CC99;fill-rule:nonzero}
   ]]>
  </style>
 </defs>
 <g id="Camada_x0020_1">
  <metadata id="CorelCorpID_0Corel-Layer"/>
  <path class="fil0" d="M26.24 127.48l127.52 0c14.43,0 26.24,11.82 26.24,26.25l0 0c0,14.46 -11.81,26.27 -26.24,26.27l-127.52 0c-14.43,0 -26.24,-11.81 -26.24,-26.27l0 0c0,-14.43 11.81,-26.25 26.24,-26.25zm0 -63.74l127.52 0c14.43,0 26.24,11.81 26.24,26.28l0 0c0,14.43 -11.81,26.24 -26.24,26.24l-127.52 0c-14.43,0 -26.24,-11.81 -26.24,-26.24l0 0c0,-14.47 11.81,-26.28 26.24,-26.28zm0 -63.74l127.52 0c14.43,0 26.24,11.81 26.24,26.27l0 0c0,14.43 -11.81,26.24 -26.24,26.24l-127.52 0c-14.43,0 -26.24,-11.81 -26.24,-26.24l0 0c0,-14.46 11.81,-26.27 26.24,-26.27z"/>
  <path class="fil1" d="M26.24 127.48l1.38 0c14.43,0 26.28,11.82 26.28,26.25l0 0c0,14.46 -11.85,26.27 -26.28,26.27l-1.38 0c-14.43,0 -26.24,-11.81 -26.24,-26.27l0 0c0,-14.43 11.81,-26.25 26.24,-26.25zm0 -63.74l49.61 0c14.43,0 26.27,11.81 26.27,26.28l0 0c0,14.43 -11.84,26.24 -26.27,26.24l-49.61 0c-14.43,0 -26.24,-11.81 -26.24,-26.24l0 0c0,-14.47 11.81,-26.28 26.24,-26.28zm0 -63.74l98.37 0c14.44,0 26.25,11.81 26.25,26.27l0 0c0,14.43 -11.81,26.24 -26.25,26.24l-98.37 0c-14.43,0 -26.24,-11.81 -26.24,-26.24l0 0c0,-14.46 11.81,-26.27 26.24,-26.27z"/>
 </g>
</svg>
