<?xml version="1.0" encoding="UTF-8"?>
<!DOCTYPE svg PUBLIC "-//W3C//DTD SVG 1.1//EN" "http://www.w3.org/Graphics/SVG/1.1/DTD/svg11.dtd">
<!-- Creator: CorelDRAW -->
<svg xmlns="http://www.w3.org/2000/svg" xml:space="preserve" width="210px" height="107px" version="1.1" style="shape-rendering:geometricPrecision; text-rendering:geometricPrecision; image-rendering:optimizeQuality; fill-rule:evenodd; clip-rule:evenodd"
viewBox="0 0 210 107.3"
 xmlns:xlink="http://www.w3.org/1999/xlink"
 xmlns:xodm="http://www.corel.com/coreldraw/odm/2003">
 <defs>
  <style type="text/css">
   <![CDATA[
    .fil1 {fill:#003399;fill-rule:nonzero}
    .fil0 {fill:#33CC99;fill-rule:nonzero}
   ]]>
  </style>
 </defs>
 <g id="Camada_x0020_1">
  <metadata id="CorelCorpID_0Corel-Layer"/>
  <g id="_2343542683952">
   <path class="fil0" d="M57.79 95.17c0,2.01 -0.39,3.77 -1.18,5.29 -0.81,1.51 -1.87,2.77 -3.23,3.79 -1.37,1.01 -2.95,1.77 -4.77,2.29 -1.81,0.51 -3.76,0.76 -5.83,0.76 -1.4,0 -2.69,-0.11 -3.9,-0.33 -1.2,-0.22 -2.25,-0.48 -3.17,-0.8 -0.92,-0.3 -1.69,-0.62 -2.31,-0.96 -0.62,-0.35 -1.06,-0.65 -1.34,-0.9 -0.26,-0.26 -0.45,-0.64 -0.57,-1.12 -0.12,-0.48 -0.17,-1.17 -0.17,-2.07 0,-0.62 0.02,-1.12 0.06,-1.54 0.04,-0.41 0.11,-0.74 0.2,-1 0.1,-0.26 0.23,-0.44 0.38,-0.55 0.16,-0.11 0.34,-0.16 0.55,-0.16 0.29,0 0.71,0.16 1.24,0.49 0.54,0.33 1.22,0.69 2.05,1.08 0.84,0.4 1.84,0.76 3.01,1.08 1.15,0.33 2.5,0.49 4.02,0.49 1.01,0 1.91,-0.11 2.7,-0.33 0.8,-0.23 1.47,-0.54 2.03,-0.96 0.55,-0.41 0.97,-0.91 1.27,-1.52 0.29,-0.6 0.44,-1.28 0.44,-2.02 0,-0.87 -0.25,-1.62 -0.75,-2.23 -0.5,-0.63 -1.16,-1.17 -1.97,-1.65 -0.8,-0.49 -1.72,-0.94 -2.74,-1.36 -1.02,-0.43 -2.08,-0.87 -3.17,-1.34 -1.09,-0.48 -2.14,-1.01 -3.16,-1.62 -1.02,-0.59 -1.94,-1.31 -2.74,-2.14 -0.82,-0.84 -1.47,-1.83 -1.97,-2.98 -0.5,-1.13 -0.75,-2.5 -0.75,-4.1 0,-1.82 0.36,-3.43 1.08,-4.83 0.72,-1.38 1.69,-2.53 2.91,-3.44 1.23,-0.92 2.66,-1.6 4.31,-2.06 1.66,-0.45 3.42,-0.67 5.28,-0.67 0.95,0 1.91,0.07 2.87,0.21 0.97,0.13 1.86,0.32 2.7,0.55 0.83,0.24 1.57,0.51 2.22,0.8 0.64,0.3 1.07,0.54 1.28,0.75 0.21,0.19 0.34,0.36 0.42,0.49 0.07,0.14 0.14,0.32 0.19,0.55 0.05,0.23 0.09,0.51 0.11,0.86 0.02,0.34 0.03,0.77 0.03,1.28 0,0.56 -0.01,1.05 -0.04,1.44 -0.03,0.39 -0.09,0.72 -0.16,0.98 -0.08,0.25 -0.19,0.44 -0.31,0.55 -0.14,0.12 -0.32,0.18 -0.56,0.18 -0.22,0 -0.59,-0.14 -1.09,-0.41 -0.5,-0.27 -1.12,-0.57 -1.85,-0.91 -0.73,-0.32 -1.58,-0.61 -2.54,-0.87 -0.96,-0.28 -2.01,-0.41 -3.16,-0.41 -0.9,0 -1.68,0.11 -2.35,0.32 -0.67,0.2 -1.22,0.49 -1.67,0.85 -0.45,0.37 -0.79,0.8 -1,1.31 -0.23,0.52 -0.34,1.06 -0.34,1.63 0,0.84 0.25,1.58 0.74,2.19 0.49,0.63 1.16,1.18 1.98,1.67 0.82,0.47 1.76,0.92 2.81,1.35 1.04,0.42 2.1,0.87 3.19,1.34 1.09,0.47 2.16,1 3.2,1.61 1.04,0.6 1.97,1.32 2.8,2.16 0.81,0.83 1.47,1.81 1.97,2.95 0.51,1.13 0.75,2.46 0.75,3.99zm20.75 7.88c0,0.87 -0.05,1.53 -0.17,2 -0.11,0.46 -0.26,0.78 -0.46,0.96 -0.18,0.19 -0.46,0.37 -0.82,0.51 -0.37,0.15 -0.8,0.28 -1.29,0.38 -0.48,0.11 -1.02,0.19 -1.59,0.25 -0.58,0.06 -1.16,0.09 -1.74,0.09 -1.56,0 -2.92,-0.19 -4.08,-0.56 -1.14,-0.37 -2.09,-0.95 -2.85,-1.72 -0.75,-0.78 -1.3,-1.76 -1.65,-2.95 -0.36,-1.18 -0.54,-2.58 -0.54,-4.19l0 -13.5 -3.39 0c-0.39,0 -0.7,-0.23 -0.9,-0.69 -0.22,-0.46 -0.32,-1.24 -0.32,-2.33 0,-0.57 0.02,-1.06 0.07,-1.45 0.05,-0.39 0.14,-0.7 0.25,-0.94 0.09,-0.22 0.23,-0.38 0.39,-0.48 0.15,-0.1 0.34,-0.15 0.55,-0.15l3.35 0 0 -5.9c0,-0.19 0.06,-0.37 0.17,-0.53 0.12,-0.15 0.33,-0.28 0.63,-0.39 0.3,-0.12 0.72,-0.2 1.23,-0.25 0.51,-0.05 1.14,-0.07 1.9,-0.07 0.77,0 1.41,0.02 1.93,0.07 0.51,0.05 0.92,0.13 1.21,0.25 0.29,0.11 0.51,0.24 0.62,0.39 0.13,0.16 0.2,0.34 0.2,0.53l0 5.9 6.05 0c0.22,0 0.4,0.05 0.55,0.15 0.16,0.1 0.29,0.26 0.4,0.48 0.1,0.24 0.18,0.55 0.23,0.94 0.05,0.39 0.07,0.88 0.07,1.45 0,1.09 -0.1,1.87 -0.3,2.33 -0.22,0.46 -0.52,0.69 -0.91,0.69l-6.09 0 0 12.38c0,1.44 0.23,2.52 0.71,3.24 0.48,0.71 1.34,1.07 2.57,1.07 0.41,0 0.79,-0.03 1.12,-0.1 0.33,-0.07 0.63,-0.15 0.88,-0.24 0.27,-0.08 0.49,-0.16 0.67,-0.23 0.17,-0.07 0.34,-0.1 0.48,-0.1 0.13,0 0.24,0.03 0.36,0.1 0.11,0.07 0.21,0.2 0.27,0.41 0.05,0.21 0.12,0.49 0.17,0.84 0.05,0.36 0.07,0.81 0.07,1.36zm31.52 2.59c0,0.19 -0.05,0.36 -0.16,0.51 -0.09,0.16 -0.27,0.28 -0.54,0.38 -0.26,0.09 -0.6,0.17 -1.04,0.22 -0.43,0.05 -0.96,0.07 -1.6,0.07 -0.69,0 -1.25,-0.02 -1.68,-0.07 -0.43,-0.05 -0.77,-0.13 -1.01,-0.22 -0.26,-0.1 -0.43,-0.22 -0.54,-0.38 -0.1,-0.15 -0.16,-0.32 -0.16,-0.51l0 -3.04c-1.54,1.56 -3.11,2.74 -4.71,3.52 -1.6,0.79 -3.26,1.18 -4.97,1.18 -1.92,0 -3.54,-0.29 -4.85,-0.88 -1.3,-0.59 -2.36,-1.4 -3.16,-2.42 -0.8,-1.03 -1.38,-2.21 -1.73,-3.56 -0.34,-1.35 -0.51,-3.03 -0.51,-5.04l0 -16.12c0,-0.2 0.05,-0.37 0.17,-0.52 0.11,-0.15 0.33,-0.27 0.63,-0.37 0.3,-0.09 0.71,-0.17 1.23,-0.22 0.51,-0.05 1.14,-0.07 1.9,-0.07 0.77,0 1.41,0.02 1.91,0.07 0.5,0.05 0.91,0.13 1.21,0.22 0.31,0.1 0.52,0.22 0.64,0.37 0.13,0.15 0.19,0.32 0.19,0.52l0 14.88c0,1.38 0.1,2.43 0.28,3.16 0.19,0.73 0.48,1.36 0.86,1.87 0.39,0.52 0.88,0.93 1.48,1.22 0.59,0.28 1.28,0.42 2.08,0.42 1.01,0 2.01,-0.34 3.03,-1.02 1,-0.69 2.09,-1.7 3.23,-3.01l0 -17.52c0,-0.2 0.06,-0.37 0.17,-0.52 0.12,-0.15 0.32,-0.27 0.63,-0.37 0.3,-0.09 0.71,-0.17 1.2,-0.22 0.5,-0.05 1.14,-0.07 1.91,-0.07 0.77,0 1.41,0.02 1.92,0.07 0.49,0.05 0.89,0.13 1.18,0.22 0.29,0.1 0.5,0.22 0.62,0.37 0.13,0.15 0.19,0.32 0.19,0.52l0 26.36zm25.31 -17.61c-1.12,-1.34 -2.21,-2.35 -3.24,-3.07 -1.04,-0.7 -2.12,-1.06 -3.25,-1.06 -1.01,0 -1.9,0.24 -2.64,0.73 -0.75,0.48 -1.33,1.12 -1.78,1.92 -0.45,0.82 -0.79,1.72 -1.01,2.7 -0.22,1 -0.33,2.02 -0.33,3.06 0,1.11 0.1,2.17 0.28,3.21 0.19,1.05 0.5,1.98 0.93,2.79 0.43,0.82 0.99,1.47 1.71,1.97 0.71,0.49 1.6,0.73 2.69,0.73 0.54,0 1.07,-0.07 1.58,-0.22 0.52,-0.15 1.03,-0.38 1.56,-0.72 0.54,-0.34 1.08,-0.77 1.65,-1.31 0.56,-0.55 1.18,-1.2 1.85,-1.99l0 -8.74zm7.82 17.61c0,0.21 -0.06,0.39 -0.16,0.54 -0.1,0.16 -0.28,0.28 -0.53,0.38 -0.25,0.09 -0.59,0.16 -1.02,0.2 -0.43,0.04 -0.95,0.06 -1.57,0.06 -0.67,0 -1.22,-0.02 -1.64,-0.06 -0.41,-0.04 -0.74,-0.11 -1.01,-0.2 -0.26,-0.1 -0.45,-0.23 -0.56,-0.38 -0.11,-0.15 -0.18,-0.33 -0.18,-0.55l0 -2.93c-1.43,1.46 -2.95,2.59 -4.52,3.39 -1.58,0.81 -3.32,1.21 -5.24,1.21 -2.13,0 -3.94,-0.39 -5.4,-1.17 -1.47,-0.77 -2.67,-1.82 -3.6,-3.14 -0.93,-1.31 -1.6,-2.85 -2.02,-4.62 -0.42,-1.76 -0.63,-3.61 -0.63,-5.56 0,-2.34 0.27,-4.44 0.8,-6.32 0.54,-1.86 1.3,-3.45 2.33,-4.78 1.03,-1.32 2.3,-2.32 3.83,-3.04 1.51,-0.7 3.27,-1.06 5.25,-1.06 1.56,0 2.98,0.31 4.25,0.9 1.29,0.6 2.55,1.48 3.8,2.64l0 -14.24c0,-0.2 0.05,-0.37 0.17,-0.53 0.12,-0.15 0.32,-0.3 0.63,-0.4 0.3,-0.11 0.7,-0.19 1.2,-0.25 0.5,-0.06 1.14,-0.09 1.91,-0.09 0.77,0 1.41,0.03 1.91,0.09 0.49,0.06 0.9,0.14 1.19,0.25 0.28,0.1 0.5,0.25 0.62,0.4 0.12,0.16 0.19,0.33 0.19,0.53l0 38.73zm24.79 -16.05c0.06,-2.09 -0.39,-3.73 -1.34,-4.92 -0.95,-1.2 -2.41,-1.8 -4.4,-1.8 -1,0 -1.88,0.19 -2.62,0.54 -0.74,0.35 -1.36,0.83 -1.86,1.43 -0.49,0.6 -0.86,1.31 -1.12,2.13 -0.26,0.82 -0.41,1.69 -0.46,2.62l11.8 0zm7.63 2.11c0,0.91 -0.22,1.57 -0.64,2.01 -0.43,0.43 -1.02,0.65 -1.78,0.65l-17.01 0c0,1.12 0.14,2.13 0.43,3.05 0.28,0.9 0.73,1.68 1.34,2.31 0.62,0.64 1.41,1.12 2.38,1.46 0.97,0.33 2.12,0.5 3.48,0.5 1.38,0 2.59,-0.09 3.63,-0.28 1.04,-0.19 1.95,-0.4 2.71,-0.63 0.76,-0.23 1.39,-0.43 1.89,-0.62 0.5,-0.19 0.91,-0.28 1.22,-0.28 0.19,0 0.35,0.03 0.47,0.1 0.12,0.07 0.23,0.19 0.32,0.37 0.07,0.17 0.14,0.42 0.17,0.74 0.03,0.33 0.04,0.74 0.04,1.22 0,0.44 -0.01,0.81 -0.03,1.11 -0.02,0.3 -0.06,0.57 -0.1,0.78 -0.04,0.22 -0.09,0.4 -0.18,0.54 -0.08,0.15 -0.19,0.3 -0.33,0.44 -0.14,0.13 -0.5,0.32 -1.11,0.56 -0.61,0.24 -1.38,0.47 -2.32,0.71 -0.94,0.23 -2.01,0.43 -3.22,0.6 -1.2,0.17 -2.5,0.26 -3.87,0.26 -2.49,0 -4.66,-0.29 -6.53,-0.88 -1.86,-0.59 -3.42,-1.48 -4.68,-2.68 -1.25,-1.2 -2.18,-2.73 -2.8,-4.55 -0.61,-1.83 -0.92,-3.98 -0.92,-6.44 0,-2.34 0.32,-4.44 0.97,-6.33 0.64,-1.87 1.58,-3.47 2.82,-4.78 1.23,-1.3 2.73,-2.3 4.49,-2.99 1.77,-0.69 3.76,-1.04 5.97,-1.04 2.34,0 4.34,0.33 6,0.98 1.66,0.65 3.02,1.55 4.09,2.7 1.06,1.15 1.85,2.52 2.35,4.09 0.5,1.58 0.75,3.29 0.75,5.14l0 1.18zm26.31 0.79c0,-1.3 -0.1,-2.5 -0.33,-3.59 -0.22,-1.1 -0.59,-2.05 -1.12,-2.85 -0.52,-0.81 -1.22,-1.44 -2.08,-1.9 -0.88,-0.45 -1.97,-0.67 -3.29,-0.67 -1.18,0 -2.21,0.2 -3.09,0.6 -0.88,0.41 -1.6,1 -2.17,1.78 -0.57,0.77 -0.99,1.71 -1.27,2.8 -0.29,1.1 -0.43,2.34 -0.43,3.74 0,1.3 0.12,2.5 0.34,3.59 0.24,1.09 0.61,2.04 1.12,2.85 0.52,0.8 1.21,1.43 2.1,1.87 0.87,0.45 1.96,0.67 3.27,0.67 1.19,0 2.23,-0.2 3.12,-0.61 0.87,-0.4 1.6,-0.99 2.17,-1.75 0.56,-0.78 0.98,-1.7 1.26,-2.79 0.26,-1.1 0.4,-2.34 0.4,-3.74zm8.08 -0.29c0,2.23 -0.31,4.28 -0.94,6.13 -0.63,1.85 -1.57,3.44 -2.85,4.78 -1.27,1.34 -2.87,2.37 -4.79,3.1 -1.92,0.73 -4.17,1.09 -6.73,1.09 -2.49,0 -4.65,-0.32 -6.49,-0.97 -1.83,-0.65 -3.36,-1.6 -4.57,-2.84 -1.21,-1.24 -2.1,-2.76 -2.69,-4.57 -0.59,-1.81 -0.88,-3.87 -0.88,-6.2 0,-2.24 0.32,-4.29 0.95,-6.15 0.64,-1.86 1.6,-3.45 2.88,-4.78 1.27,-1.33 2.86,-2.35 4.77,-3.09 1.9,-0.72 4.15,-1.09 6.71,-1.09 2.51,0 4.68,0.33 6.52,0.96 1.84,0.65 3.35,1.58 4.55,2.82 1.21,1.24 2.1,2.76 2.68,4.58 0.59,1.8 0.88,3.88 0.88,6.23zm-159.76 -50.86l109.52 0c4.68,0 8.51,3.83 8.51,8.51l0 0c0,4.69 -3.83,8.52 -8.51,8.52l-109.52 0c-4.68,0 -8.51,-3.83 -8.51,-8.52l0 0c0,-4.68 3.83,-8.51 8.51,-8.51zm0 -20.67l109.52 0c4.68,0 8.51,3.83 8.51,8.52l0 0c0,4.68 -3.83,8.51 -8.51,8.51l-109.52 0c-4.68,0 -8.51,-3.83 -8.51,-8.51l0 0c0,-4.69 3.83,-8.52 8.51,-8.52zm0 -20.67l109.52 0c4.68,0 8.51,3.83 8.51,8.52l0 0c0,4.68 -3.83,8.51 -8.51,8.51l-109.52 0c-4.68,0 -8.51,-3.83 -8.51,-8.51l0 0c0,-4.69 3.83,-8.52 8.51,-8.52z"/>
   <path class="fil1" d="M27.44 91.7c0,0.91 -0.22,1.57 -0.64,2.01 -0.43,0.43 -1.02,0.65 -1.78,0.65l-17.01 0c0,1.12 0.14,2.13 0.43,3.05 0.28,0.9 0.73,1.68 1.34,2.31 0.61,0.64 1.41,1.12 2.38,1.46 0.97,0.33 2.12,0.5 3.48,0.5 1.38,0 2.59,-0.09 3.63,-0.28 1.04,-0.19 1.95,-0.4 2.71,-0.63 0.76,-0.23 1.39,-0.43 1.89,-0.62 0.5,-0.19 0.91,-0.28 1.22,-0.28 0.19,0 0.35,0.03 0.47,0.1 0.12,0.07 0.23,0.19 0.32,0.37 0.07,0.17 0.13,0.42 0.17,0.74 0.03,0.33 0.04,0.74 0.04,1.22 0,0.44 -0.01,0.81 -0.03,1.11 -0.02,0.3 -0.05,0.57 -0.1,0.78 -0.04,0.22 -0.09,0.4 -0.18,0.54 -0.09,0.15 -0.19,0.3 -0.33,0.44 -0.14,0.13 -0.5,0.32 -1.11,0.56 -0.61,0.24 -1.38,0.47 -2.32,0.71 -0.94,0.23 -2.01,0.43 -3.22,0.6 -1.2,0.17 -2.5,0.26 -3.87,0.26 -2.49,0 -4.66,-0.29 -6.53,-0.88 -1.86,-0.59 -3.42,-1.48 -4.68,-2.68 -1.25,-1.2 -2.18,-2.73 -2.8,-4.55 -0.61,-1.83 -0.92,-3.98 -0.92,-6.44 0,-2.34 0.32,-4.44 0.97,-6.33 0.64,-1.87 1.58,-3.47 2.82,-4.78 1.23,-1.3 2.73,-2.3 4.49,-2.99 1.77,-0.69 3.76,-1.04 5.97,-1.04 2.34,0 4.34,0.33 6,0.98 1.66,0.65 3.02,1.55 4.09,2.7 1.06,1.15 1.85,2.52 2.35,4.09 0.5,1.58 0.75,3.29 0.75,5.14l0 1.18zm-7.63 -2.11c0.06,-2.09 -0.39,-3.73 -1.34,-4.92 -0.95,-1.2 -2.41,-1.8 -4.4,-1.8 -1,0 -1.88,0.19 -2.62,0.54 -0.74,0.35 -1.36,0.83 -1.86,1.43 -0.49,0.6 -0.86,1.31 -1.12,2.13 -0.26,0.82 -0.41,1.69 -0.46,2.62l11.8 0zm30.43 -48.25l20.86 0c4.68,0 8.52,3.83 8.52,8.51l0 0c0,4.69 -3.84,8.52 -8.52,8.52l-20.86 0c-4.68,0 -8.51,-3.83 -8.51,-8.52l0 0c0,-4.68 3.83,-8.51 8.51,-8.51zm0 -20.67l54.76 0c4.68,0 8.52,3.83 8.52,8.52l0 0c0,4.68 -3.84,8.51 -8.52,8.51l-54.76 0c-4.68,0 -8.51,-3.83 -8.51,-8.51l0 0c0,-4.69 3.83,-8.52 8.51,-8.52zm0 -20.67l89.24 0c4.68,0 8.51,3.83 8.51,8.52l0 0c0,4.68 -3.83,8.51 -8.51,8.51l-89.24 0c-4.68,0 -8.51,-3.83 -8.51,-8.51l0 0c0,-4.69 3.83,-8.52 8.51,-8.52z"/>
  </g>
 </g>
</svg>
