<svg width="18" height="18" viewBox="0 0 18 18" fill="none" xmlns="http://www.w3.org/2000/svg">
<path d="M16.5 0H1.5C1.10218 0 0.720644 0.158035 0.43934 0.43934C0.158035 0.720644 0 1.10218 0 1.5V16.5C0 16.8978 0.158035 17.2794 0.43934 17.5607C0.720644 17.842 1.10218 18 1.5 18H16.5C16.8978 18 17.2794 17.842 17.5607 17.5607C17.842 17.2794 18 16.8978 18 16.5V1.5C18 1.10218 17.842 0.720644 17.5607 0.43934C17.2794 0.158035 16.8978 0 16.5 0ZM14.25 9.75H9.75V14.25C9.75 14.4489 9.67098 14.6397 9.53033 14.7803C9.38968 14.921 9.19891 15 9 15C8.80109 15 8.61032 14.921 8.46967 14.7803C8.32902 14.6397 8.25 14.4489 8.25 14.25V9.75H3.75C3.55109 9.75 3.36032 9.67098 3.21967 9.53033C3.07902 9.38968 3 9.19891 3 9C3 8.80109 3.07902 8.61032 3.21967 8.46967C3.36032 8.32902 3.55109 8.25 3.75 8.25H8.25V3.75C8.25 3.55109 8.32902 3.36032 8.46967 3.21967C8.61032 3.07902 8.80109 3 9 3C9.19891 3 9.38968 3.07902 9.53033 3.21967C9.67098 3.36032 9.75 3.55109 9.75 3.75V8.25H14.25C14.4489 8.25 14.6397 8.32902 14.7803 8.46967C14.921 8.61032 15 8.80109 15 9C15 9.19891 14.921 9.38968 14.7803 9.53033C14.6397 9.67098 14.4489 9.75 14.25 9.75Z" fill="black"/>
</svg>
